Coordinates
version=1
nRows=38
nColumns=38
inDegrees=no

Units are S.I. units (second, meters, Newtons, ...)
If the header above contains a line with 'inDegrees', this indicates whether rotational values are in degrees (yes) or radians (no).

endheader
time	pelvis_tilt	pelvis_list	pelvis_rotation	pelvis_tx	pelvis_ty	pelvis_tz	hip_flexion_r	hip_adduction_r	hip_rotation_r	knee_angle_r	ankle_angle_r	subtalar_angle_r	mtp_angle_r	hip_flexion_l	hip_adduction_l	hip_rotation_l	knee_angle_l	ankle_angle_l	subtalar_angle_l	mtp_angle_l	lumbar_extension	lumbar_bending	lumbar_rotation	arm_flex_r	arm_add_r	arm_rot_r	elbow_flex_r	pro_sup_r	wrist_flex_r	wrist_dev_r	arm_flex_l	arm_add_l	arm_rot_l	elbow_flex_l	pro_sup_l	wrist_flex_l	wrist_dev_l
0.92	0.271724	1.36652	1.29334	0.659134	0.523852	1.05326	0.492569	-0.0267903	-0.079647	0.730737	-0.102904	0	0	0.102742	-0.0428933	-0.282497	0.184778	-0.163639	0	0	0.0773817	0.0419122	-0.0540021	-0.0862016	-0.210589	0.319625	0.345139	1.5708	0	0	-0.0387199	-0.360885	0.334527	0.821867	1.215	0	0
0.93	0.284425	1.36616	1.28702	0.658586	0.536002	1.05334	0.495154	-0.0248723	-0.0919725	0.668885	-0.100913	0	0	0.0843763	-0.0440524	-0.282666	0.172535	-0.16925	0	0	0.0758291	0.0465818	-0.059244	-0.092685	-0.208484	0.29913	0.344037	1.5708	0	0	-0.0327748	-0.362849	0.328604	0.838213	1.22593	0	0
0.94	0.291304	1.36509	1.28565	0.658097	0.548206	1.05298	0.497404	-0.0234427	-0.105458	0.603388	-0.102925	0	0	0.0672496	-0.0443862	-0.284394	0.161036	-0.173656	0	0	0.0752844	0.0502013	-0.0635928	-0.0987642	-0.206592	0.281761	0.342936	1.5708	0	0	-0.0275951	-0.364739	0.322267	0.854942	1.23685	0	0
0.95	0.293267	1.36366	1.28886	0.657688	0.560457	1.0522	0.498906	-0.0222469	-0.120693	0.534007	-0.109139	0	0	0.0512184	-0.0442108	-0.287033	0.15055	-0.176606	0	0	0.0760378	0.0528068	-0.0674454	-0.104194	-0.2049	0.268625	0.340915	1.5708	0	0	-0.0227249	-0.366382	0.316156	0.870888	1.24712	0	0
0.96	0.292462	1.36273	1.2949	0.657381	0.572822	1.05105	0.498686	-0.0211035	-0.138217	0.460793	-0.118306	0	0	0.0350078	-0.0436314	-0.2881	0.140652	-0.178271	0	0	0.0766553	0.0543695	-0.0712864	-0.108737	-0.203436	0.260556	0.33836	1.5708	0	0	-0.0183809	-0.368187	0.310047	0.886919	1.2562	0	0
0.97	0.291539	1.36286	1.30178	0.657096	0.585306	1.04955	0.496303	-0.0201878	-0.158056	0.384638	-0.132141	0	0	0.0181489	-0.0430444	-0.287329	0.132092	-0.17844	0	0	0.0760536	0.0552351	-0.0759295	-0.112269	-0.202381	0.257632	0.335732	1.5708	0	0	-0.0147326	-0.370053	0.303178	0.903617	1.26525	0	0
0.98	0.287595	1.36246	1.3115	0.656934	0.597865	1.04758	0.494268	-0.0188658	-0.178336	0.308069	-0.146613	0	0	0.0024347	-0.0424257	-0.285991	0.124994	-0.176897	0	0	0.0765204	0.0554522	-0.080634	-0.115108	-0.20173	0.259715	0.332364	1.5708	0	0	-0.0116362	-0.372161	0.296978	0.919865	1.27278	0	0
0.99	0.278473	1.36121	1.32606	0.656855	0.610475	1.0452	0.493633	-0.017482	-0.198542	0.23287	-0.162003	0	0	-0.0117587	-0.0414011	-0.285242	0.119025	-0.174146	0	0	0.0783915	0.0547021	-0.0851616	-0.116989	-0.201251	0.266141	0.327834	1.5708	0	0	-0.00895538	-0.374005	0.29074	0.935131	1.27942	0	0
1	0.265398	1.35976	1.34442	0.656877	0.623123	1.04252	0.493582	-0.0159984	-0.218034	0.15947	-0.178544	0	0	-0.0250569	-0.0398853	-0.283278	0.114629	-0.170203	0	0	0.0807407	0.0530502	-0.0897701	-0.11749	-0.20068	0.276083	0.32187	1.5708	0	0	-0.00649144	-0.375851	0.284989	0.949193	1.28539	0	0
1.01	0.247149	1.35803	1.36756	0.657006	0.63581	1.03954	0.494278	-0.0147819	-0.234281	0.089045	-0.194064	0	0	-0.037397	-0.0375098	-0.280543	0.111607	-0.16578	0	0	0.0836544	0.0502046	-0.0942507	-0.11679	-0.199896	0.288925	0.314657	1.5708	0	0	-0.00425661	-0.377603	0.279586	0.961824	1.29041	0	0
1.02	0.225564	1.35634	1.39391	0.657231	0.6485	1.03635	0.495355	-0.0139705	-0.246649	0.0231776	-0.206466	0	0	-0.0489458	-0.0346686	-0.277204	0.110415	-0.16051	0	0	0.0864784	0.0464574	-0.0986169	-0.114868	-0.198875	0.303991	0.306298	1.5708	0	0	-0.00186009	-0.379251	0.274707	0.973015	1.29519	0	0
1.03	0.199236	1.35335	1.42312	0.657688	0.661182	1.03287	0.500695	-0.0139035	-0.251794	0	-0.207441	0	0	-0.0582751	-0.0311979	-0.275379	0.111439	-0.156271	0	0	0.0905162	0.0420998	-0.099628	-0.114128	-0.197663	0.314379	0.299496	1.5708	0	0	0.00208122	-0.38071	0.273164	0.981627	1.29875	0	0
1.04	0.174143	1.349	1.45056	0.658294	0.673983	1.02929	0.509011	-0.014012	-0.256506	0	-0.200142	0	0	-0.0653089	-0.0284331	-0.272613	0.115043	-0.146829	0	0	0.096542	0.0378757	-0.104086	-0.108575	-0.195895	0.33702	0.286301	1.5708	0	0	0.00149512	-0.381475	0.265883	0.989872	1.30526	0	0
1.05	0.155696	1.34573	1.47113	0.659006	0.686973	1.02582	0.516609	-0.0131824	-0.262244	0	-0.187507	0	0	-0.0726353	-0.0275095	-0.270138	0.121271	-0.138793	0	0	0.100677	0.0352566	-0.107054	-0.103784	-0.194374	0.355622	0.275097	1.5708	0	0	0.00228554	-0.380961	0.259969	0.995419	1.31155	0	0
1.06	0.143857	1.3437	1.48523	0.659743	0.700127	1.0225	0.523827	-0.0112288	-0.268959	0	-0.170855	0	0	-0.0799959	-0.0284994	-0.267561	0.130576	-0.13042	0	0	0.102874	0.0343208	-0.10932	-0.0991454	-0.193301	0.371653	0.26521	1.5708	0	0	0.0041156	-0.37982	0.255968	0.998702	1.31768	0	0
1.07	0.138517	1.34289	1.49335	0.66043	0.71341	1.01938	0.531224	-0.00854842	-0.274828	0	-0.154935	0	0	-0.0869322	-0.0315648	-0.265847	0.14373	-0.122391	0	0	0.103043	0.0350589	-0.111178	-0.0948358	-0.192775	0.383701	0.2571	1.5708	0	0	0.00710551	-0.37782	0.253724	0.999587	1.3234	0	0
1.08	0.139921	1.34355	1.49453	0.661158	0.726877	1.01656	0.53862	-0.00488027	-0.278375	0	-0.147994	0	0	-0.0945127	-0.0363992	-0.263969	0.158827	-0.118481	0	0	0.100842	0.0377101	-0.11178	-0.0913994	-0.192922	0.389315	0.251899	1.5708	0	0	0.0114525	-0.375231	0.25422	0.998047	1.32696	0	0
1.09	0.147176	1.34537	1.48938	0.661963	0.740568	1.01414	0.54575	4.51008e-05	-0.280377	0	-0.144196	0	0	-0.10284	-0.0425688	-0.262368	0.174928	-0.114695	0	0	0.0972408	0.0418817	-0.112778	-0.087077	-0.193286	0.394626	0.246747	1.5708	0	0	0.0148665	-0.372197	0.254817	0.994559	1.33108	0	0
1.1	0.159369	1.34836	1.47945	0.662808	0.754594	1.0121	0.551302	0.00598546	-0.280543	0	-0.1447	0	0	-0.11166	-0.0498054	-0.261651	0.193061	-0.112406	0	0	0.0925016	0.0470171	-0.114326	-0.0825697	-0.193909	0.398521	0.242207	1.5708	0	0	0.0173621	-0.368832	0.255973	0.989179	1.33461	0	0
1.11	0.175051	1.35328	1.46637	0.663649	0.769088	1.01044	0.553176	0.0125979	-0.278937	0	-0.14951	0	0	-0.121784	-0.0577152	-0.263484	0.213385	-0.110499	0	0	0.0864192	0.0524016	-0.116673	-0.077827	-0.194448	0.402232	0.237461	1.5708	0	0	0.0183077	-0.364983	0.256661	0.982128	1.33894	0	0
1.12	0.195001	1.36076	1.45028	0.66433	0.784027	1.00916	0.549952	0.019274	-0.2774	0.00431849	-0.16417	0	0	-0.13331	-0.066747	-0.268204	0.23743	-0.11018	0	0	0.0782542	0.0579382	-0.121025	-0.0724183	-0.194815	0.405949	0.232429	1.5708	0	0	0.0173545	-0.360035	0.254707	0.973739	1.34574	0	0
1.13	0.209872	1.36447	1.44015	0.664902	0.799263	1.00774	0.550604	0.0242674	-0.27283	0.0411515	-0.18413	0	0	-0.139309	-0.074822	-0.269307	0.26321	-0.114538	0	0	0.0756599	0.0622831	-0.127541	-0.0693136	-0.195753	0.405969	0.23087	1.5708	0	0	0.0128222	-0.355036	0.251801	0.964736	1.34945	0	0
1.14	0.227566	1.36516	1.42817	0.665356	0.814656	1.00652	0.552264	0.0288422	-0.267647	0.068093	-0.21685	0	0	-0.139416	-0.0841001	-0.26795	0.293577	-0.122424	0	0	0.0772003	0.067884	-0.135495	-0.0672631	-0.196967	0.402271	0.23028	1.5708	0	0	0.00745216	-0.348923	0.250115	0.951896	1.35187	0	0
1.15	0.249257	1.36282	1.41211	0.665808	0.830031	1.00565	0.555867	0.0324003	-0.261861	0.0901037	-0.256812	0	0	-0.133149	-0.0948473	-0.263821	0.329751	-0.134771	0	0	0.0821396	0.0754066	-0.142491	-0.0661855	-0.198613	0.393855	0.230777	1.5708	0	0	0.00350613	-0.34131	0.251544	0.933558	1.35375	0	0
1.16	0.277357	1.35961	1.38875	0.666378	0.845291	1.00526	0.55929	0.0360597	-0.255816	0.11512	-0.277895	0	0	-0.123261	-0.107173	-0.256598	0.371493	-0.148635	0	0	0.0867546	0.0848086	-0.147014	-0.0655163	-0.200844	0.383164	0.233197	1.5708	0	0	0.00178098	-0.333058	0.256545	0.911664	1.35389	0	0
1.17	0.311816	1.35556	1.35741	0.667092	0.860422	1.0053	0.562566	0.0411036	-0.247102	0.144786	-0.279489	0	0	-0.110094	-0.120677	-0.245944	0.418666	-0.166707	0	0	0.0911549	0.0960375	-0.147947	-0.0660661	-0.203597	0.368132	0.238362	1.5708	0	0	0.00209155	-0.323603	0.264172	0.886391	1.35226	0	0
1.18	0.34713	1.35052	1.3234	0.667918	0.875356	1.00566	0.566958	0.0476544	-0.23145	0.180693	-0.260086	0	0	-0.0931639	-0.134078	-0.232249	0.470422	-0.190698	0	0	0.0955899	0.107954	-0.144735	-0.0687236	-0.206517	0.345582	0.247594	1.5708	0	0	0.00430416	-0.313636	0.275443	0.858656	1.34858	0	0
1.19	0.381131	1.34497	1.28923	0.668887	0.889975	1.00623	0.572528	0.0557942	-0.209791	0.221749	-0.231373	0	0	-0.0727976	-0.146906	-0.214791	0.525557	-0.217064	0	0	0.0992048	0.119946	-0.139489	-0.0713114	-0.209768	0.323318	0.259424	1.5708	0	0	0.00647847	-0.304382	0.288102	0.831445	1.34318	0	0
1.2	0.410876	1.33869	1.25845	0.670085	0.904269	1.00679	0.579179	0.0650884	-0.187623	0.263765	-0.198413	0	0	-0.0490027	-0.158667	-0.191818	0.582517	-0.246975	0	0	0.103269	0.131057	-0.132299	-0.0749972	-0.213354	0.301794	0.274377	1.5708	0	0	0.0089068	-0.296834	0.304302	0.804919	1.33405	0	0
1.21	0.437405	1.33335	1.23159	0.671336	0.918265	1.00733	0.583125	0.0743146	-0.171972	0.299263	-0.173773	0	0	-0.0236486	-0.169028	-0.164384	0.640854	-0.274017	0	0	0.106132	0.140493	-0.127545	-0.0763638	-0.216798	0.288745	0.289034	1.5708	0	0	0.00863297	-0.291033	0.317864	0.782154	1.3232	0	0
1.22	0.459871	1.32838	1.21099	0.672509	0.932036	1.0077	0.583823	0.0820476	-0.1667	0.325693	-0.151484	0	0	0.00426313	-0.177876	-0.132554	0.701205	-0.301911	0	0	0.110076	0.147938	-0.125287	-0.0774867	-0.220222	0.28069	0.304079	1.5708	0	0	0.00729384	-0.287181	0.332961	0.761155	1.30832	0	0
1.23	0.479942	1.32373	1.19563	0.67346	0.945517	1.00792	0.580668	0.0880387	-0.172122	0.344073	-0.131102	0	0	0.0348843	-0.185165	-0.0971383	0.763004	-0.330984	0	0	0.11462	0.153664	-0.126165	-0.0778513	-0.223466	0.276325	0.319298	1.5708	0	0	0.00522046	-0.285274	0.349685	0.742248	1.28975	0	0
1.24	0.499206	1.32024	1.18407	0.674137	0.958766	1.00814	0.573079	0.0925898	-0.181184	0.356445	-0.109424	0	0	0.0667305	-0.190592	-0.0595745	0.8238	-0.364403	0	0	0.118763	0.157909	-0.129188	-0.07807	-0.227276	0.275492	0.335361	1.5708	0	0	0.0043512	-0.285535	0.372254	0.724196	1.2651	0	0
1.25	0.517559	1.31841	1.17538	0.674574	0.97184	1.00854	0.561977	0.0960173	-0.189897	0.36464	-0.0888476	0	0	0.0982713	-0.194152	-0.0229764	0.881529	-0.398154	0	0	0.121715	0.160629	-0.133372	-0.0774671	-0.231507	0.277534	0.351281	1.5708	0	0	0.0048288	-0.287576	0.400414	0.706695	1.23687	0	0
1.26	0.531714	1.31793	1.17116	0.674844	0.984776	1.00925	0.549054	0.0981191	-0.197544	0.369881	-0.0712607	0	0	0.129104	-0.19517	0.0105322	0.93502	-0.422071	0	0	0.124218	0.161449	-0.136318	-0.0761866	-0.234975	0.277721	0.365231	1.5708	0	0	0.0072901	-0.289698	0.432949	0.68755	1.20692	0	0
1.27	0.543667	1.3182	1.16846	0.675059	0.997558	1.01038	0.53474	0.0997453	-0.206258	0.371461	-0.0604477	0	0	0.158915	-0.19449	0.0407146	0.983699	-0.427325	0	0	0.125123	0.161504	-0.139439	-0.0715998	-0.237383	0.277992	0.375553	1.5708	0	0	0.00748135	-0.288896	0.453425	0.668669	1.19006	0	0
1.28	0.554459	1.3185	1.16536	0.675403	1.01027	1.01188	0.51955	0.101947	-0.215395	0.36988	-0.0509755	0	0	0.187351	-0.192693	0.0680273	1.02691	-0.419257	0	0	0.125932	0.161381	-0.140134	-0.0663271	-0.239931	0.279441	0.384408	1.5708	0	0	0.0083556	-0.288101	0.47606	0.648701	1.17514	0	0
1.29	0.563581	1.31979	1.16124	0.67597	1.02291	1.01377	0.502889	0.10493	-0.221416	0.36592	-0.0440622	0	0	0.213079	-0.190046	0.0896629	1.06479	-0.398353	0	0	0.124997	0.160766	-0.138254	-0.0608114	-0.242453	0.277558	0.394762	1.5708	0	0	0.00856917	-0.287331	0.496434	0.630078	1.16061	0	0
